<?xml version="1.0" encoding="UTF-8" standalone="no"?>
<!-- Created with Inkscape (http://www.inkscape.org/) -->

<svg
   xmlns:dc="http://purl.org/dc/elements/1.1/"
   xmlns:cc="http://creativecommons.org/ns#"
   xmlns:rdf="http://www.w3.org/1999/02/22-rdf-syntax-ns#"
   xmlns:svg="http://www.w3.org/2000/svg"
   xmlns="http://www.w3.org/2000/svg"
   xmlns:sodipodi="http://sodipodi.sourceforge.net/DTD/sodipodi-0.dtd"
   xmlns:inkscape="http://www.inkscape.org/namespaces/inkscape"
   width="50"
   height="50"
   viewBox="0 0 50 50"
   id="svg2"
   version="1.1"
   inkscape:version="0.91 r13725"
   sodipodi:docname="mg_icon.svg">
  <defs
     id="defs4" />
  <sodipodi:namedview
     id="base"
     pagecolor="#ffffff"
     bordercolor="#666666"
     borderopacity="1.0"
     inkscape:pageopacity="0.0"
     inkscape:pageshadow="2"
     inkscape:zoom="11.313709"
     inkscape:cx="40.013274"
     inkscape:cy="23.496246"
     inkscape:document-units="px"
     inkscape:current-layer="layer1"
     showgrid="false"
     inkscape:snap-grids="true"
     units="px"
     showborder="true"
     showguides="false"
     inkscape:snap-global="false"
     inkscape:window-width="1600"
     inkscape:window-height="784"
     inkscape:window-x="34"
     inkscape:window-y="1"
     inkscape:window-maximized="0">
    <inkscape:grid
       type="xygrid"
       id="grid3390" />
  </sodipodi:namedview>
  <metadata
     id="metadata7">
    <rdf:RDF>
      <cc:Work
         rdf:about="">
        <dc:format>image/svg+xml</dc:format>
        <dc:type
           rdf:resource="http://purl.org/dc/dcmitype/StillImage" />
        <dc:title></dc:title>
      </cc:Work>
    </rdf:RDF>
  </metadata>
  <g
     inkscape:label="Layer 1"
     inkscape:groupmode="layer"
     id="layer1"
     transform="translate(0,-1002.362)">
    <flowRoot
       xml:space="preserve"
       id="flowRoot3336"
       style="font-style:normal;font-variant:normal;font-weight:normal;font-stretch:normal;font-size:40px;line-height:125%;font-family:'.Helvetica LT MM';-inkscape-font-specification:'.Helvetica LT MM';letter-spacing:0px;word-spacing:0px;fill:#000000;fill-opacity:1;stroke:none;stroke-width:1px;stroke-linecap:butt;stroke-linejoin:miter;stroke-opacity:1"><flowRegion
         id="flowRegion3338"><rect
           id="rect3340"
           width="442.85715"
           height="442.85715"
           x="-1185.7142"
           y="572.36218"
           style="font-style:normal;font-variant:normal;font-weight:normal;font-stretch:normal;font-family:'.Helvetica LT MM';-inkscape-font-specification:'.Helvetica LT MM'" /></flowRegion><flowPara
         id="flowPara3342" /></flowRoot>    <flowRoot
       xml:space="preserve"
       id="flowRoot3352"
       style="font-style:normal;font-variant:normal;font-weight:normal;font-stretch:normal;font-size:80px;line-height:125%;font-family:'.Helvetica LT MM';-inkscape-font-specification:'.Helvetica LT MM';letter-spacing:0px;word-spacing:0px;fill:#000000;fill-opacity:1;stroke:none;stroke-width:1px;stroke-linecap:butt;stroke-linejoin:miter;stroke-opacity:1"><flowRegion
         id="flowRegion3354"><rect
           id="rect3356"
           width="968.57141"
           height="465.71429"
           x="-1322.8572"
           y="-776.20923"
           style="font-style:normal;font-variant:normal;font-weight:normal;font-stretch:normal;font-size:80px;font-family:'.Helvetica LT MM';-inkscape-font-specification:'.Helvetica LT MM'" /></flowRegion><flowPara
         id="flowPara3358" /></flowRoot>    <rect
       style="opacity:1;fill:#4d4d4d"
       id="rect4143"
       width="50"
       height="50"
       x="0.062499993"
       y="1002.4246"
       rx="8.333333" />
    <path
       inkscape:transform-center-x="-0.68776971"
       inkscape:transform-center-y="1.4123516"
       d="m 12.550158,1012.6539 c -5.6516251,0.8071 -6.1693851,19.5621 -6.1693851,19.5621 l -4.520828,-0.042 c 0,0 -0.6973198,-26.4687 9.9479761,-26.5804 9.809552,-0.1042 13.441026,12.5917 13.441026,12.5917 0,0 2.980126,-12.445 10.585563,-12.5363 11.007294,-0.1292 11.930944,16.3242 11.844415,25.8138 -0.05971,6.5483 -1.913379,17.12 -5.807858,19.3391 -4.539667,2.5867 -15.529186,-3.7008 -15.529186,-3.7008 l 1.935847,-3.2367 c 0,0 6.327678,3.8642 9.871885,3.9721 5.120262,0.1583 5.642804,-11.9521 5.455937,-15.9446 -0.338208,-7.2258 0.867217,-19.5566 -7.266342,-19.1696 -7.203373,0.3417 -10.081244,10.3438 -7.98964,17.1059 1.273457,4.1175 2.865775,5.4875 8.395552,5.0779 5.221805,-0.3875 9.057422,-6.36 9.057422,-6.36 l 0.847229,4.8904 c 0,0 -5.394086,4.97 -9.464739,5.1725 -4.65559,0.2333 -11.801644,-2.7546 -12.64476,-6.9546 -1.601325,-7.9771 -5.231073,-19.9696 -11.990114,-19.0046 z"
       id="path3411"
       inkscape:connector-curvature="0"
       sodipodi:nodetypes="sccscsssccsssssccsss"
       style="fill:#f9f9f9" />
  </g>
</svg>
