<?xml version="1.0" encoding="UTF-8" standalone="no"?>
<!-- Created with Inkscape (http://www.inkscape.org/) -->

<svg
   xmlns:dc="http://purl.org/dc/elements/1.1/"
   xmlns:cc="http://creativecommons.org/ns#"
   xmlns:rdf="http://www.w3.org/1999/02/22-rdf-syntax-ns#"
   xmlns:svg="http://www.w3.org/2000/svg"
   xmlns="http://www.w3.org/2000/svg"
   xmlns:sodipodi="http://sodipodi.sourceforge.net/DTD/sodipodi-0.dtd"
   xmlns:inkscape="http://www.inkscape.org/namespaces/inkscape"
   width="210mm"
   height="297mm"
   viewBox="0 0 744.09449 1052.3622"
   id="svg2"
   version="1.1"
   inkscape:version="0.91 r13725"
   sodipodi:docname="mg_logo.svg">
  <defs
     id="defs4" />
  <sodipodi:namedview
     id="base"
     pagecolor="#ffffff"
     bordercolor="#666666"
     borderopacity="1.0"
     inkscape:pageopacity="0.0"
     inkscape:pageshadow="2"
     inkscape:zoom="0.5"
     inkscape:cx="209.93375"
     inkscape:cy="1695.6566"
     inkscape:document-units="px"
     inkscape:current-layer="layer1"
     showgrid="false"
     inkscape:snap-grids="true"
     units="mm"
     showborder="false"
     showguides="false"
     inkscape:snap-global="false"
     inkscape:window-width="1600"
     inkscape:window-height="784"
     inkscape:window-x="-1"
     inkscape:window-y="8"
     inkscape:window-maximized="0">
    <inkscape:grid
       type="xygrid"
       id="grid3390" />
  </sodipodi:namedview>
  <metadata
     id="metadata7">
    <rdf:RDF>
      <cc:Work
         rdf:about="">
        <dc:format>image/svg+xml</dc:format>
        <dc:type
           rdf:resource="http://purl.org/dc/dcmitype/StillImage" />
        <dc:title></dc:title>
      </cc:Work>
    </rdf:RDF>
  </metadata>
  <g
     inkscape:label="Layer 1"
     inkscape:groupmode="layer"
     id="layer1"
     transform="translate(0,4.7244096e-6)">
    <flowRoot
       xml:space="preserve"
       id="flowRoot3336"
       style="font-style:normal;font-variant:normal;font-weight:normal;font-stretch:normal;font-size:40px;line-height:125%;font-family:'.Helvetica LT MM';-inkscape-font-specification:'.Helvetica LT MM';letter-spacing:0px;word-spacing:0px;fill:#000000;fill-opacity:1;stroke:none;stroke-width:1px;stroke-linecap:butt;stroke-linejoin:miter;stroke-opacity:1"><flowRegion
         id="flowRegion3338"><rect
           id="rect3340"
           width="442.85715"
           height="442.85715"
           x="-1185.7142"
           y="572.36218"
           style="font-style:normal;font-variant:normal;font-weight:normal;font-stretch:normal;font-family:'.Helvetica LT MM';-inkscape-font-specification:'.Helvetica LT MM'" /></flowRegion><flowPara
         id="flowPara3342"></flowPara></flowRoot>    <flowRoot
       xml:space="preserve"
       id="flowRoot3352"
       style="font-style:normal;font-variant:normal;font-weight:normal;font-stretch:normal;font-size:80px;line-height:125%;font-family:'.Helvetica LT MM';-inkscape-font-specification:'.Helvetica LT MM';letter-spacing:0px;word-spacing:0px;fill:#000000;fill-opacity:1;stroke:none;stroke-width:1px;stroke-linecap:butt;stroke-linejoin:miter;stroke-opacity:1"><flowRegion
         id="flowRegion3354"><rect
           id="rect3356"
           width="968.57141"
           height="465.71429"
           x="-1322.8572"
           y="-776.20923"
           style="font-style:normal;font-variant:normal;font-weight:normal;font-stretch:normal;font-size:80px;font-family:'.Helvetica LT MM';-inkscape-font-specification:'.Helvetica LT MM'" /></flowRegion><flowPara
         id="flowPara3358"></flowPara></flowRoot>    <path
       inkscape:transform-center-x="-8.6450783"
       inkscape:transform-center-y="18.54163"
       d="m 629.31109,-966.39752 c -71.03925,10.56641 -79.54731,244.09514 -79.54731,244.09514 l -56.82545,-0.50127 c 0,0 -8.72689,-344.45805 125.04305,-347.97355 127.30311,-3.3455 170.94967,206.83883 170.94967,206.83883 0,0 35.45925,-204.92163 131.05731,-206.11513 138.35844,-1.7274 144.34754,345.03724 144.34754,345.03724 l -46.6679,-1.47777 c 0,0 6.9007,-262.027 -95.3357,-256.95554 -90.54426,4.49147 -98.42741,255.94157 -98.42741,255.94157 l -41.88168,1.9046 c 0,0 -67.753,-253.43097 -152.71212,-240.79412 z"
       id="path3386"
       inkscape:connector-curvature="0"
       sodipodi:nodetypes="sccscsccsccs" />
    <path
       sodipodi:nodetypes="sccscsccsccs"
       inkscape:connector-curvature="0"
       id="path3409"
       d="m -734.68891,-938.3975 c -71.03925,10.5664 -79.54731,244.09512 -79.54731,244.09512 l -56.82545,-0.50127 c 0,0 -8.72689,-344.45805 125.04305,-347.97355 127.30311,-3.3455 170.94967,206.83883 170.94967,206.83883 0,0 35.45925,-204.92163 131.05731,-206.11513 138.35839,-1.7274 144.34749,345.03724 144.34749,345.03724 l -46.66786,-1.47777 c 0,0 6.90066,-262.02697 -95.33569,-256.95557 -90.54426,4.4915 -98.42741,255.9416 -98.42741,255.9416 l -41.88168,1.9046 c 0,0 -67.753,-253.431 -152.71212,-240.7941 z"
       inkscape:transform-center-y="18.54163"
       inkscape:transform-center-x="-8.6450783" />
    <path
       inkscape:transform-center-x="-8.6450783"
       inkscape:transform-center-y="18.54163"
       d="m 231.31109,-548.39752 c -71.03925,10.56641 -77.54731,256.09514 -77.54731,256.09514 l -56.82545,-0.50127 c 0,0 -8.765109,-346.51341 125.04305,-347.97355 123.30311,-1.34551 168.94967,164.83883 168.94967,164.83883 0,0 37.45925,-162.92162 133.05731,-164.11516 138.35839,-1.72741 151.43514,216.80624 150.34749,341.03727 -0.75055,85.72763 -34.3176,224.12949 -83.27006,253.179187 C 534.00353,-11.974798 404.66889,-97.3857 404.66889,-97.3857 l 24.33303,-42.36944 c 0,0 70.73672,52.13469 115.28632,53.54654 64.36014,2.03968 79.72861,-158.01571 77.37975,-210.28543 -4.25099,-94.59844 10.90066,-256.027 -91.33569,-250.95554 -90.54426,4.49147 -126.71824,135.41029 -100.42741,223.94157 16.00699,53.90165 35.86733,68.66103 105.52958,66.47615 62.70307,-1.96661 112.38239,-70.88096 112.38239,-70.88096 l 0.3824,67.11903 c 0,0 -56.06835,49.58444 -107.23521,52.23808 -58.5194,3.03496 -148.34312,-36.06393 -158.94084,-91.0477 -20.12817,-104.43027 -65.753,-261.43097 -150.71212,-248.79412 z"
       id="path3411"
       inkscape:connector-curvature="0"
       sodipodi:nodetypes="sccscsssccsssssccsss" />
  </g>
</svg>
