<?xml version="1.0" encoding="UTF-8" standalone="no"?>
<!-- Created with Inkscape (http://www.inkscape.org/) -->

<svg
   xmlns:dc="http://purl.org/dc/elements/1.1/"
   xmlns:cc="http://creativecommons.org/ns#"
   xmlns:rdf="http://www.w3.org/1999/02/22-rdf-syntax-ns#"
   xmlns:svg="http://www.w3.org/2000/svg"
   xmlns="http://www.w3.org/2000/svg"
   xmlns:sodipodi="http://sodipodi.sourceforge.net/DTD/sodipodi-0.dtd"
   xmlns:inkscape="http://www.inkscape.org/namespaces/inkscape"
   width="300mm"
   height="300mm"
   viewBox="0 0 1062.9921 1062.9921"
   id="svg2"
   version="1.1"
   inkscape:version="0.91 r13725"
   sodipodi:docname="profile_team.svg">
  <defs
     id="defs4" />
  <sodipodi:namedview
     id="base"
     pagecolor="#ffffff"
     bordercolor="#666666"
     borderopacity="1.0"
     inkscape:pageopacity="0.0"
     inkscape:pageshadow="2"
     inkscape:zoom="0.39875"
     inkscape:cx="165.48181"
     inkscape:cy="600.0338"
     inkscape:document-units="px"
     inkscape:current-layer="svg2"
     showgrid="false"
     inkscape:window-width="1600"
     inkscape:window-height="784"
     inkscape:window-x="-10"
     inkscape:window-y="0"
     inkscape:window-maximized="0" />
  <metadata
     id="metadata7">
    <rdf:RDF>
      <cc:Work
         rdf:about="">
        <dc:format>image/svg+xml</dc:format>
        <dc:type
           rdf:resource="http://purl.org/dc/dcmitype/StillImage" />
        <dc:title />
      </cc:Work>
    </rdf:RDF>
  </metadata>
  <rect
     style="opacity:1;fill:#4d4d4d"
     id="rect4213"
     width="1064"
     height="1064"
     x="2.209641"
     y="2.9920697" />
  <g
     id="g4187"
     transform="translate(-417.63495,4.2097087)">
    <rect
       rx="6.7580299"
       y="647.0376"
       x="1261.9425"
       height="48.025917"
       width="111.2179"
       id="rect4170"
       style="opacity:1;fill:#b3b3b3" />
    <path
       sodipodi:nodetypes="ccsccsc"
       inkscape:connector-curvature="0"
       id="path4172"
       d="m 1260.5229,687.50594 114.057,0 c 0,0 237.6186,-2.10145 237.6186,232.64242 l 0,145.40144 -589.2942,0 0,-145.40144 c 0,-243.06096 237.6186,-232.64242 237.6186,-232.64242 z"
       style="opacity:1;fill:#b3b3b3" />
    <path
       sodipodi:nodetypes="sssssssssss"
       inkscape:connector-curvature="0"
       id="path4174"
       d="m 1361.7858,668.29548 c -26.7661,12.37777 -61.7026,12.37777 -88.4688,0 -35.129,-16.24507 -60.0525,-52.8521 -75.1985,-88.4688 -17.3967,-40.90965 -15.4416,-88.30122 -13.2703,-132.70317 1.1017,-22.52829 2.0121,-46.80704 13.2703,-66.3516 16.6857,-28.96674 43.9302,-54.5289 75.1985,-66.35159 27.5837,-10.42953 60.8851,-10.42953 88.4688,0 31.2683,11.82269 58.5128,37.38485 75.1985,66.3516 11.2582,19.54455 12.1686,43.8233 13.2703,66.35159 2.1714,44.40195 4.1265,91.79352 -13.2703,132.70317 -15.146,35.6167 -40.0695,72.22373 -75.1985,88.4688 z"
       style="opacity:1;fill:#b3b3b3" />
  </g>
  <g
     transform="translate(-1141.4782,4.7175457)"
     id="g6441">
    <rect
       style="opacity:1;fill:#b3b3b3"
       id="rect6443"
       width="111.2179"
       height="48.025917"
       x="1261.9425"
       y="647.0376"
       rx="6.7580299" />
    <path
       style="opacity:1;fill:#b3b3b3"
       d="m 1260.5229,687.50594 114.057,0 c 0,0 237.6186,-2.10145 237.6186,232.64242 l 0,145.40144 -589.2942,0 0,-145.40144 c 0,-243.06096 237.6186,-232.64242 237.6186,-232.64242 z"
       id="path6445"
       inkscape:connector-curvature="0"
       sodipodi:nodetypes="ccsccsc" />
    <path
       style="opacity:1;fill:#b3b3b3"
       d="m 1361.7858,668.29548 c -26.7661,12.37777 -61.7026,12.37777 -88.4688,0 -35.129,-16.24507 -60.0525,-52.8521 -75.1985,-88.4688 -17.3967,-40.90965 -15.4416,-88.30122 -13.2703,-132.70317 1.1017,-22.52829 2.0121,-46.80704 13.2703,-66.3516 16.6857,-28.96674 43.9302,-54.5289 75.1985,-66.35159 27.5837,-10.42953 60.8851,-10.42953 88.4688,0 31.2683,11.82269 58.5128,37.38485 75.1985,66.3516 11.2582,19.54455 12.1686,43.8233 13.2703,66.35159 2.1714,44.40195 4.1265,91.79352 -13.2703,132.70317 -15.146,35.6167 -40.0695,72.22373 -75.1985,88.4688 z"
       id="path6447"
       inkscape:connector-curvature="0"
       sodipodi:nodetypes="sssssssssss" />
  </g>
  <g
     id="g4179"
     transform="translate(-0.796704,4.2097087)">
    <path
       sodipodi:nodetypes="ccsccsc"
       inkscape:connector-curvature="0"
       id="rect4140"
       d="m 463.26806,750.58337 155.79546,0 c 0,0 324.5739,-1.74652 324.5739,193.34955 l 0,120.84348 -804.94324,0 0,-120.84348 c 0,-202.00841 324.57388,-193.34955 324.57388,-193.34955 z"
       style="opacity:1;fill:#b3b3b3;stroke:#000000;stroke-width:1;stroke-miterlimit:4;stroke-dasharray:none;stroke-opacity:1" />
    <path
       sodipodi:nodetypes="sssssssssss"
       inkscape:connector-curvature="0"
       id="rect4152"
       d="m 601.58752,724.37769 c -36.56108,16.90734 -84.28237,16.90734 -120.84347,0 -47.98425,-22.18986 -82.0284,-72.19304 -102.71694,-120.84347 -23.76304,-55.88033 -21.09247,-120.61458 -18.12652,-181.26518 1.50485,-30.7724 2.74843,-63.93582 18.12652,-90.63262 22.79167,-39.56695 60.00617,-74.48345 102.71694,-90.63258 37.67783,-14.24616 83.16565,-14.24616 120.84347,0 42.71077,16.14913 79.92528,51.06563 102.71694,90.6326 15.37811,26.69678 16.62168,59.8602 18.12652,90.6326 2.96597,60.6506 5.63653,125.38485 -18.12652,181.26518 -20.68853,48.65043 -54.73268,98.65361 -102.71694,120.84347 z"
       style="opacity:1;fill:#b3b3b3;stroke:#000000;stroke-opacity:1" />
    <rect
       rx="9.2310944"
       y="695.34064"
       x="465.20706"
       height="65.600739"
       width="151.9175"
       id="rect4138"
       style="opacity:1;fill:#b3b3b3" />
  </g>
</svg>
