<?xml version="1.0" encoding="UTF-8" standalone="no"?>
<!-- Created with Inkscape (http://www.inkscape.org/) -->

<svg
   xmlns:dc="http://purl.org/dc/elements/1.1/"
   xmlns:cc="http://creativecommons.org/ns#"
   xmlns:rdf="http://www.w3.org/1999/02/22-rdf-syntax-ns#"
   xmlns:svg="http://www.w3.org/2000/svg"
   xmlns="http://www.w3.org/2000/svg"
   xmlns:sodipodi="http://sodipodi.sourceforge.net/DTD/sodipodi-0.dtd"
   xmlns:inkscape="http://www.inkscape.org/namespaces/inkscape"
   width="1024"
   height="1024"
   viewBox="0 0 1024 1024"
   id="svg2"
   version="1.1"
   inkscape:version="0.91 r13725"
   sodipodi:docname="profile_league.svg">
  <defs
     id="defs4">
    <inkscape:perspective
       sodipodi:type="inkscape:persp3d"
       inkscape:vp_x="-55.708241 : 563.5817 : 1"
       inkscape:vp_y="0 : 1000 : 0"
       inkscape:vp_z="1024 : 512 : 1"
       inkscape:persp3d-origin="512 : 341.33333 : 1"
       id="perspective4136" />
  </defs>
  <sodipodi:namedview
     id="base"
     pagecolor="#ffffff"
     bordercolor="#666666"
     borderopacity="1.0"
     inkscape:pageopacity="0.0"
     inkscape:pageshadow="2"
     inkscape:zoom="0.67115154"
     inkscape:cx="528.77699"
     inkscape:cy="782.00682"
     inkscape:document-units="px"
     inkscape:current-layer="layer1"
     showgrid="false"
     units="px"
     inkscape:showpageshadow="false"
     showborder="true"
     borderlayer="false"
     inkscape:window-width="1600"
     inkscape:window-height="855"
     inkscape:window-x="-5"
     inkscape:window-y="0"
     inkscape:window-maximized="0" />
  <metadata
     id="metadata7">
    <rdf:RDF>
      <cc:Work
         rdf:about="">
        <dc:format>image/svg+xml</dc:format>
        <dc:type
           rdf:resource="http://purl.org/dc/dcmitype/StillImage" />
        <dc:title></dc:title>
      </cc:Work>
    </rdf:RDF>
  </metadata>
  <g
     inkscape:label="Layer 1"
     inkscape:groupmode="layer"
     id="layer1"
     transform="translate(0,-28.361634)">
    <rect
       style="opacity:1;fill:#4d4d4d;fill-opacity:1;stroke:#ececec;stroke-width:0;stroke-miterlimit:4;stroke-dasharray:none;stroke-opacity:1"
       id="rect4331"
       width="1024"
       height="1024"
       x="1.7689305e-05"
       y="28.361629" />
    <path
       style="opacity:1;fill:#b3b3b3;fill-opacity:1;stroke:#ececec;stroke-width:10;stroke-miterlimit:4;stroke-dasharray:none;stroke-opacity:1"
       d="m 61.461894,58.664694 c 0,0 72.984356,46.955216 168.459546,81.556626 95.47517,34.60138 280.47093,62.14031 280.47093,62.14031 0,0 173.52896,-27.29699 269.00415,-61.95887 95.47518,-34.66188 179.92632,-81.738066 179.92632,-81.738066 2.57693,172.602656 7.95775,460.681036 -64.13292,623.369396 -72.08723,154.58044 -384.79755,346.31631 -384.79755,346.31631 0,0 -314.5435,-191.93847 -384.79755,-346.31631 C 55.340766,527.65625 61.461894,58.664694 61.461894,58.664694 Z"
       id="rect5738"
       inkscape:connector-curvature="0"
       sodipodi:nodetypes="cscsccczc" />
    <path
       style="fill:none;fill-rule:evenodd;stroke:#ececec;stroke-width:10;stroke-linecap:butt;stroke-linejoin:miter;stroke-miterlimit:4;stroke-dasharray:none;stroke-opacity:1"
       d="m 62.579012,230.36163 c 0,0 128.634638,54.15388 203.381788,74.52593 74.74715,20.37204 245.10113,47.70635 245.10113,47.70635 0,0 166.87736,-30.31426 241.37619,-50.6863 74.49882,-20.37205 205.61675,-71.54598 205.61675,-71.54598"
       id="path5745"
       inkscape:connector-curvature="0"
       sodipodi:nodetypes="czczc" />
    <flowRoot
       xml:space="preserve"
       id="flowRoot5755"
       style="font-style:normal;font-weight:normal;font-size:40px;line-height:125%;font-family:'.Savoye LET CC.';letter-spacing:0px;word-spacing:0px;fill:#000000;fill-opacity:1;stroke:none;stroke-width:1px;stroke-linecap:butt;stroke-linejoin:miter;stroke-opacity:1;-inkscape-font-specification:'.Savoye LET CC.';font-stretch:normal;font-variant:normal;"
       transform="translate(0,28.361634)"><flowRegion
         id="flowRegion5757"><rect
           id="rect5759"
           width="676.44934"
           height="439.54306"
           x="166.87737"
           y="363.94043"
           style="-inkscape-font-specification:'.Savoye LET CC.';font-family:'.Savoye LET CC.';font-weight:normal;font-style:normal;font-stretch:normal;font-variant:normal;" /></flowRegion><flowPara
         id="flowPara5761" /></flowRoot>    <flowRoot
       xml:space="preserve"
       id="flowRoot5773"
       style="fill:black;stroke:none;stroke-opacity:1;stroke-width:1px;stroke-linejoin:miter;stroke-linecap:butt;fill-opacity:1;font-family:Zapfino;font-style:italic;font-weight:normal;font-size:180px;line-height:125%;letter-spacing:0px;word-spacing:0px;-inkscape-font-specification:'Zapfino Italic';font-stretch:normal;font-variant:normal;"><flowRegion
         id="flowRegion5775"><rect
           id="rect5777"
           width="457.42279"
           height="476.79248"
           x="289.05542"
           y="360.96048"
           style="font-size:180px;-inkscape-font-specification:'Zapfino Italic';font-family:Zapfino;font-weight:normal;font-style:italic;font-stretch:normal;font-variant:normal;" /></flowRegion><flowPara
         id="flowPara5779"></flowPara></flowRoot>    <path
       sodipodi:type="star"
       style="opacity:1;fill:#f2f2f2;fill-opacity:1;stroke:#ececec;stroke-width:0;stroke-miterlimit:4;stroke-dasharray:none;stroke-opacity:1"
       id="path5785"
       sodipodi:sides="5"
       sodipodi:cx="317.36499"
       sodipodi:cy="246.28436"
       sodipodi:r1="76.047211"
       sodipodi:r2="26.16024"
       sodipodi:arg1="0.96649082"
       sodipodi:arg2="1.5948094"
       inkscape:flatsided="false"
       inkscape:rounded="0"
       inkscape:randomized="0"
       d="m 360.57431,308.86338 -43.83745,-36.42632 -45.53563,34.27979 21.09696,-52.94824 -46.67329,-32.71393 56.87609,3.7025 16.68995,-54.4981 14.05439,55.23651 56.98825,-0.96775 -48.19,30.43554 z"
       inkscape:transform-center-x="-0.43634737"
       inkscape:transform-center-y="-5.0608624"
       transform="matrix(0.77332293,0,0,0.75275334,-35.211037,19.863684)" />
    <flowRoot
       xml:space="preserve"
       id="flowRoot5795"
       style="font-style:normal;font-variant:normal;font-weight:500;font-stretch:normal;font-size:40px;line-height:125%;font-family:'Apple Chancery';-inkscape-font-specification:'Apple Chancery Medium';letter-spacing:0px;word-spacing:0px;fill:#ececec;fill-opacity:1;stroke:none;stroke-width:1px;stroke-linecap:butt;stroke-linejoin:miter;stroke-opacity:1"
       transform="matrix(2.3135306,0,0,2.3135306,33.470102,-71.029571)"><flowRegion
         id="flowRegion5797"><rect
           id="rect5799"
           width="742.0083"
           height="174.32724"
           x="146.0177"
           y="119.58428"
           style="font-style:normal;font-variant:normal;font-weight:500;font-stretch:normal;font-family:'Apple Chancery';-inkscape-font-specification:'Apple Chancery Medium';fill:#ececec;fill-opacity:1" /></flowRegion><flowPara
         id="flowPara5801">League</flowPara></flowRoot>    <path
       style="fill:none;fill-rule:evenodd;stroke:#ececec;stroke-width:10;stroke-linecap:butt;stroke-linejoin:miter;stroke-miterlimit:4;stroke-dasharray:none;stroke-opacity:1"
       d="m 508.08198,352.07269 0,668.99941"
       id="path5803"
       inkscape:connector-curvature="0" />
    <path
       transform="matrix(0.77332293,0,0,0.75275334,574.18934,19.863684)"
       inkscape:transform-center-y="-5.0608624"
       inkscape:transform-center-x="-0.43634737"
       d="m 360.57431,308.86338 -43.83745,-36.42632 -45.53563,34.27979 21.09696,-52.94824 -46.67329,-32.71393 56.87609,3.7025 16.68995,-54.4981 14.05439,55.23651 56.98825,-0.96775 -48.19,30.43554 z"
       inkscape:randomized="0"
       inkscape:rounded="0"
       inkscape:flatsided="false"
       sodipodi:arg2="1.5948094"
       sodipodi:arg1="0.96649082"
       sodipodi:r2="26.16024"
       sodipodi:r1="76.047211"
       sodipodi:cy="246.28436"
       sodipodi:cx="317.36499"
       sodipodi:sides="5"
       id="path5805"
       style="opacity:1;fill:#f2f2f2;fill-opacity:1;stroke:#ececec;stroke-width:0;stroke-miterlimit:4;stroke-dasharray:none;stroke-opacity:1"
       sodipodi:type="star" />
    <path
       inkscape:connector-curvature="0"
       id="path5807"
       d="m 909.63063,631.44327 -801.60734,0"
       style="fill:none;fill-rule:evenodd;stroke:#ececec;stroke-width:10;stroke-linecap:butt;stroke-linejoin:miter;stroke-miterlimit:4;stroke-dasharray:none;stroke-opacity:1" />
    <path
       style="opacity:1;fill:#ffffff;fill-opacity:1;stroke:#ececec;stroke-width:1.5;stroke-miterlimit:4;stroke-dasharray:none;stroke-opacity:1"
       d="M 107.61207,578.80236 C 95.716828,528.76446 85.986187,460.12393 79.149837,378.02803 73.683983,312.39006 68.566719,211.89565 70.690229,211.89565 c 0.543218,0 16.906013,6.30016 36.361771,14.00036 69.50246,27.50768 123.65315,46.70264 157.55217,55.84802 40.43706,10.90923 139.89737,30.57971 226.84891,44.86439 l 10.80233,1.77464 0,134.70825 0,134.70825 -195.06362,0 -195.06362,0 -4.5161,-18.9972 z"
       id="path5809"
       inkscape:connector-curvature="0"
       transform="translate(0,28.361634)" />
    <path
       style="opacity:1;fill:#ffffff;fill-opacity:1;stroke:#ececec;stroke-width:1.5;stroke-miterlimit:4;stroke-dasharray:none;stroke-opacity:1"
       d="m 514.17523,799.71005 0,-191.48066 195.9319,0 c 109.13579,0 195.93191,0.57054 195.93191,1.28793 0,2.86813 -12.51022,34.59476 -18.58645,47.13631 -34.20723,70.6049 -132.94929,166.76442 -276.42889,269.1991 -23.15494,16.53105 -73.21888,50.46458 -90.51607,61.35213 l -6.3324,3.98587 0,-191.48068 z"
       id="path5811"
       inkscape:connector-curvature="0"
       transform="translate(0,28.361634)" />
  </g>
</svg>
