<?xml version="1.0" encoding="UTF-8" standalone="no"?>
<!-- Created with Inkscape (http://www.inkscape.org/) -->

<svg
   xmlns:dc="http://purl.org/dc/elements/1.1/"
   xmlns:cc="http://creativecommons.org/ns#"
   xmlns:rdf="http://www.w3.org/1999/02/22-rdf-syntax-ns#"
   xmlns:svg="http://www.w3.org/2000/svg"
   xmlns="http://www.w3.org/2000/svg"
   xmlns:sodipodi="http://sodipodi.sourceforge.net/DTD/sodipodi-0.dtd"
   xmlns:inkscape="http://www.inkscape.org/namespaces/inkscape"
   width="1024"
   height="1024"
   viewBox="0 0 1024 1024"
   id="svg2"
   version="1.1"
   inkscape:version="0.91 r13725"
   sodipodi:docname="profile_game.svg">
  <defs
     id="defs4">
    <inkscape:perspective
       sodipodi:type="inkscape:persp3d"
       inkscape:vp_x="-55.708241 : 563.5817 : 1"
       inkscape:vp_y="0 : 1000 : 0"
       inkscape:vp_z="1024 : 512 : 1"
       inkscape:persp3d-origin="512 : 341.33333 : 1"
       id="perspective4136" />
  </defs>
  <sodipodi:namedview
     id="base"
     pagecolor="#ffffff"
     bordercolor="#666666"
     borderopacity="1.0"
     inkscape:pageopacity="0.0"
     inkscape:pageshadow="2"
     inkscape:zoom="0.68542401"
     inkscape:cx="508.16128"
     inkscape:cy="466.31389"
     inkscape:document-units="px"
     inkscape:current-layer="layer1"
     showgrid="false"
     units="px"
     inkscape:showpageshadow="false"
     showborder="true"
     borderlayer="false"
     inkscape:window-width="1600"
     inkscape:window-height="855"
     inkscape:window-x="-5"
     inkscape:window-y="0"
     inkscape:window-maximized="0" />
  <metadata
     id="metadata7">
    <rdf:RDF>
      <cc:Work
         rdf:about="">
        <dc:format>image/svg+xml</dc:format>
        <dc:type
           rdf:resource="http://purl.org/dc/dcmitype/StillImage" />
        <dc:title></dc:title>
      </cc:Work>
    </rdf:RDF>
  </metadata>
  <g
     inkscape:label="Layer 1"
     inkscape:groupmode="layer"
     id="layer1"
     transform="translate(0,-28.361634)">
    <g
       id="g5028">
      <rect
         y="28.361629"
         x="1.7689305e-05"
         height="1024"
         width="1024"
         id="rect4331"
         style="opacity:1;fill:#4d4d4d;fill-opacity:1;stroke:#ececec;stroke-width:0;stroke-miterlimit:4;stroke-dasharray:none;stroke-opacity:1" />
      <path
         inkscape:connector-curvature="0"
         id="rect4196"
         d="m 349.15614,125.97306 c 0,0 -81.76944,-61.217037 -100.45453,37.94238 100.54213,266.19073 231.16411,544.58496 331.7475,810.7924 a 30.771716,45.542138 69.308093 0 0 -4.66858,24.84265 30.771716,45.542138 69.308093 0 0 53.4768,12.69511 30.771716,45.542138 69.308093 0 0 31.73298,-44.87956 30.771716,45.542138 69.308093 0 0 -25.6881,-16.5426 L 349.15614,125.97306 Z"
         style="opacity:1;fill:#b3b3b3;fill-opacity:1;stroke:#000000;stroke-width:0;stroke-miterlimit:4;stroke-dasharray:none;stroke-opacity:1" />
      <g
         id="g5023">
        <path
           id="path4242"
           d="m 499.52123,165.65173 a 50.097699,51.953173 0 0 0 -50.09762,51.9534 50.097699,51.953173 0 0 0 50.09762,51.9529 50.097699,51.953173 0 0 0 50.09761,-51.9529 50.097699,51.953173 0 0 0 -50.09761,-51.9534 z m -0.37036,1.41367 0,101.99782 0,-101.99782 z"
           style="opacity:1;fill:#b3b3b3;fill-opacity:1;stroke:#000000;stroke-width:0;stroke-miterlimit:4;stroke-dasharray:none;stroke-opacity:1"
           inkscape:connector-curvature="0" />
        <path
           style="fill:none;fill-rule:evenodd;stroke:#ececec;stroke-width:2.26098871;stroke-linecap:butt;stroke-linejoin:miter;stroke-miterlimit:4;stroke-dasharray:none;stroke-opacity:1"
           d="m 535.30695,182.3195 c 0,0 -14.85935,19.43954 -15.13752,34.41603 -0.27816,14.97649 15.13752,36.54375 15.13752,36.54375"
           id="path4244"
           inkscape:connector-curvature="0"
           sodipodi:nodetypes="czc" />
        <path
           sodipodi:nodetypes="czc"
           inkscape:connector-curvature="0"
           id="path4248"
           d="m 462.94738,253.30805 c 0,0 13.88701,-19.45537 14.14697,-34.44404 0.25996,-14.98868 -14.14697,-36.57351 -14.14697,-36.57351"
           style="fill:none;fill-rule:evenodd;stroke:#ececec;stroke-width:2.18665099;stroke-linecap:butt;stroke-linejoin:miter;stroke-miterlimit:4;stroke-dasharray:none;stroke-opacity:1" />
      </g>
      <g
         id="g5009">
        <path
           style="opacity:1;fill:#b3b3b3;fill-opacity:1;stroke:#000000;stroke-width:0;stroke-miterlimit:4;stroke-dasharray:none;stroke-opacity:1"
           d="M 252.30238,563.8236 C 122.05443,560.0881 24.81836,705.12588 66.03261,825.77899 96.47445,949.70959 259.99883,1012.16 362.39566,932.90659 469.89908,861.00946 475.51022,686.82843 373.50352,607.63551 339.73859,579.66367 296.19307,563.68971 252.30238,563.8236 Z m -1.4414,5.50195 c 0,132.32421 0,264.64843 0,396.97264 0,-132.32421 0,-264.64843 0,-396.97264 z"
           id="path4266"
           inkscape:connector-curvature="0" />
        <path
           style="fill:none;fill-rule:evenodd;stroke:#ececec;stroke-width:10;stroke-linecap:butt;stroke-linejoin:miter;stroke-miterlimit:4;stroke-dasharray:none;stroke-opacity:1"
           d="m 393.16266,629.16024 c -31.79416,34.57516 -63.43365,72.99338 -74.73647,119.60595 -7.21315,37.8838 14.70281,73.30005 34.23537,103.88328 12.27457,18.15876 25.81057,35.4847 40.5011,51.75155"
           id="path4268"
           inkscape:connector-curvature="0" />
        <path
           style="fill:#f2f2f2;fill-rule:evenodd;stroke:#ececec;stroke-width:11.58748531;stroke-linecap:butt;stroke-linejoin:miter;stroke-miterlimit:4;stroke-dasharray:none;stroke-opacity:1"
           d="m 250.79714,562.88533 c 0,134.2698 0,268.5396 0,402.80941"
           id="path4270"
           inkscape:connector-curvature="0" />
        <path
           style="fill:none;fill-rule:evenodd;stroke:#ececec;stroke-width:10;stroke-linecap:butt;stroke-linejoin:miter;stroke-miterlimit:4;stroke-dasharray:none;stroke-opacity:1"
           d="m 110.47616,904.40102 c 31.79416,-34.57516 63.43365,-72.99338 74.73647,-119.60595 7.21315,-37.8838 -14.70281,-73.30005 -34.23537,-103.88328 -12.27457,-18.15876 -25.81057,-35.4847 -40.5011,-51.75155"
           id="path4272"
           inkscape:connector-curvature="0" />
        <path
           style="fill:#f2f2f2;fill-rule:evenodd;stroke:#ececec;stroke-width:11.37570381;stroke-linecap:butt;stroke-linejoin:miter;stroke-miterlimit:4;stroke-dasharray:none;stroke-opacity:1"
           d="m 445.51139,761.62242 c -129.40663,0 -258.81324,0 -388.219858,0"
           id="path4274"
           inkscape:connector-curvature="0" />
      </g>
      <g
         id="g5016">
        <path
           style="opacity:1;fill:#b3b3b3;fill-opacity:1;stroke:#000000;stroke-width:0;stroke-miterlimit:4;stroke-dasharray:none;stroke-opacity:1"
           d="m 905.46716,721.89384 c -29.9429,48.19831 -78.51161,85.16239 -130.60434,109.6261 -52.09272,24.46371 -107.70947,36.42708 -107.70947,36.42708 0,0 -9.32322,-56.90608 -10.09926,-114.83521 -0.77605,-57.92913 6.99509,-116.88133 36.245,-163.44774 29.24992,-46.56641 69.23209,-86.30324 121.49806,-111.17493 52.26598,-24.87169 116.81575,-34.87825 116.81575,-34.87825 0,0 18.25624,58.86286 19.20554,116.38403 0.94929,57.52116 -15.40838,113.70062 -45.35128,161.89892 z"
           id="rect4309"
           inkscape:connector-curvature="0"
           sodipodi:nodetypes="sscssscss" />
        <path
           id="path4324"
           style="fill:none;fill-rule:evenodd;stroke:#ececec;stroke-width:7.02179909;stroke-linecap:butt;stroke-linejoin:miter;stroke-miterlimit:4;stroke-dasharray:none;stroke-opacity:1"
           d="m 722.10068,734.43935 49.85501,31.0712 m -25.93334,-69.45449 49.855,31.0712 m -25.93331,-69.45453 49.855,31.0712 m -25.93333,-69.4545 49.85501,31.0712 m -25.93331,-69.45453 49.855,31.0712 m -25.93334,-69.45449 49.85501,31.0712 M 727.63046,780.42165 886.30619,525.81998"
           inkscape:connector-curvature="0" />
      </g>
    </g>
  </g>
</svg>
